<?xml version="1.0" encoding="utf-8"?>
<!-- Generator: Adobe Illustrator 25.2.1, SVG Export Plug-In . SVG Version: 6.00 Build 0)  -->
<svg version="1.1" id="Layer_1" xmlns="http://www.w3.org/2000/svg" xmlns:xlink="http://www.w3.org/1999/xlink" x="0px" y="0px"
	 viewBox="0 0 914.5 261" style="enable-background:new 0 0 914.5 261;" xml:space="preserve">
<style type="text/css">
	.st0{fill:#FFFFFF;}
	.st1{fill:#0E1954;}
	.st2{enable-background:new    ;}
	.st3{fill:#472BB3;}
	.st4{fill:#00E18B;}
	.st5{fill:#00DEB5;}
</style>
<g>
	<circle class="st0" cx="130.5" cy="130.5" r="130.5"/>
	<g>
		<path class="st1" d="M151.6,121.7c-0.1,1-0.1,2-0.2,2.9"/>
		<path class="st1" d="M104.1,200.8"/>
		<g class="st2">
			<path class="st0" d="M307.4,107.9c4.5-8,10.8-14.2,18.6-18.6c7.9-4.4,16.7-6.7,26.5-6.7c11.4,0,21.5,2.9,30.1,8.8
				c8.6,5.9,14.6,14,18,24.4H377c-2.3-4.9-5.6-8.6-9.9-11c-4.3-2.4-9.2-3.7-14.7-3.7c-6,0-11.3,1.4-15.9,4.2
				c-4.6,2.8-8.3,6.7-10.9,11.8c-2.6,5.1-3.9,11.1-3.9,17.9c0,6.7,1.3,12.7,3.9,17.8c2.6,5.1,6.2,9.1,10.9,11.9
				c4.6,2.8,10,4.2,15.9,4.2c5.6,0,10.5-1.2,14.7-3.7c4.3-2.5,7.6-6.2,9.9-11.1h23.6c-3.4,10.5-9.4,18.6-18,24.4
				c-8.6,5.8-18.6,8.7-30.1,8.7c-9.8,0-18.6-2.2-26.5-6.7c-7.9-4.4-14.1-10.6-18.6-18.6s-6.8-16.9-6.8-27
				C300.6,124.9,302.9,115.9,307.4,107.9z"/>
			<path class="st0" d="M438.8,77.8v108.6h-20.5V77.8H438.8z"/>
			<path class="st0" d="M460.4,91.9c-2.4-2.3-3.6-5.2-3.6-8.6c0-3.4,1.2-6.3,3.6-8.6c2.4-2.3,5.4-3.4,9-3.4c3.6,0,6.6,1.2,9,3.4
				c2.4,2.3,3.6,5.2,3.6,8.6c0,3.4-1.2,6.3-3.6,8.6c-2.4,2.3-5.4,3.4-9,3.4C465.8,95.4,462.8,94.2,460.4,91.9z M479.6,105v81.3H459
				V105H479.6z"/>
			<path class="st0" d="M568.3,113c6,6.1,8.9,14.6,8.9,25.6v47.7h-20.5v-44.9c0-6.5-1.6-11.4-4.8-14.9c-3.2-3.5-7.6-5.2-13.2-5.2
				c-5.7,0-10.1,1.7-13.4,5.2c-3.3,3.5-4.9,8.4-4.9,14.9v44.9h-20.5V105h20.5v10.1c2.7-3.5,6.2-6.3,10.5-8.3c4.3-2,8.9-3,14-3
				C554.5,103.9,562.4,106.9,568.3,113z"/>
			<path class="st0" d="M598.2,91.9c-2.4-2.3-3.6-5.2-3.6-8.6c0-3.4,1.2-6.3,3.6-8.6c2.4-2.3,5.4-3.4,9-3.4c3.6,0,6.6,1.2,9,3.4
				c2.4,2.3,3.6,5.2,3.6,8.6c0,3.4-1.2,6.3-3.6,8.6c-2.4,2.3-5.4,3.4-9,3.4C603.6,95.4,600.6,94.2,598.2,91.9z M617.3,105v81.3
				h-20.5V105H617.3z"/>
			<path class="st0" d="M661.5,121.9v39.3c0,2.7,0.7,4.7,2,5.9c1.3,1.2,3.5,1.8,6.7,1.8h9.5v17.3h-12.9c-17.3,0-26-8.4-26-25.2
				v-39.2h-9.7V105h9.7V85h20.7V105h18.2v16.9H661.5z"/>
			<path class="st0" d="M695.9,91.9c-2.4-2.3-3.6-5.2-3.6-8.6c0-3.4,1.2-6.3,3.6-8.6c2.4-2.3,5.4-3.4,9-3.4c3.6,0,6.6,1.2,9,3.4
				c2.4,2.3,3.6,5.2,3.6,8.6c0,3.4-1.2,6.3-3.6,8.6c-2.4,2.3-5.4,3.4-9,3.4C701.3,95.4,698.3,94.2,695.9,91.9z M715,105v81.3h-20.5
				V105H715z"/>
			<path class="st0" d="M735.1,123.6c3.4-6.3,8.2-11.2,14.2-14.7c6.1-3.5,13-5.2,20.8-5.2c10.1,0,18.4,2.5,25,7.6
				c6.6,5,11,12.1,13.3,21.2h-22.2c-1.2-3.5-3.2-6.3-5.9-8.3c-2.8-2-6.2-3-10.3-3c-5.9,0-10.5,2.1-13.9,6.4
				c-3.4,4.3-5.1,10.3-5.1,18.1c0,7.7,1.7,13.7,5.1,18c3.4,4.3,8.1,6.4,13.9,6.4c8.3,0,13.7-3.7,16.3-11.1h22.2
				c-2.3,8.8-6.7,15.8-13.4,21c-6.7,5.2-15,7.8-24.9,7.8c-7.8,0-14.8-1.7-20.8-5.2c-6.1-3.5-10.8-8.4-14.2-14.7
				c-3.4-6.3-5.1-13.7-5.1-22.1C730,137.3,731.7,129.9,735.1,123.6z"/>
			<path class="st0" d="M871.7,186.3l-27.6-34.6v34.6h-20.5V77.8h20.5v61.8l27.3-34.5h26.7l-35.8,40.8l36.1,40.5H871.7z"/>
		</g>
		<g>
			<path class="st3" d="M212.7,145.8c-29.4,57.1-72.6,85.9-101.9,76.6c-26.2-8.3-47.9-35-56.1-47.2C30.4,138.9,32,89.7,43.4,84.4
				c2.9,10.2,6.8,27.6,31.2,41.2c16.2,9.1,30.9,10.1,49.9,1.5c9.6-4.4,19.9-8.5,32.4-18.1C203.8,72.9,269,36.6,212.7,145.8z"/>
			<path class="st4" d="M124.6,127.2c-19,8.6-33.7,7.6-49.9-1.5c-24.4-13.6-28.3-31.1-31.2-41.2C43.5,84.4,85.9,79.4,124.6,127.2z"
				/>
		</g>
		<path class="st5" d="M151.8,70.5c0,12-9.8,21.8-21.8,21.8s-21.8-9.8-21.8-21.8S118,48.7,130,48.7C142,48.7,151.8,58.5,151.8,70.5z
			"/>
	</g>
</g>
</svg>
